<svg aria-hidden="true" style="position: absolute; width: 0; height: 0; overflow: hidden;" version="1.1" xmlns="http://www.w3.org/2000/svg" xmlns:xlink="http://www.w3.org/1999/xlink">
<defs>
<symbol id="phonebook" viewBox="0 0 32 32">
<path fill="#fff" style="fill: var(--color1, #fff)" d="M23.091 11.684c-0.029-0.029-1.987-1.987-1.987-1.987l-2.975 2.975 1.99 1.99-4.003 4.003-1.99-1.99-2.974 2.974c0 0 1.959 1.959 1.987 1.987 1.467 1.467 4.885 0.429 7.633-2.319s3.787-6.166 2.319-7.633z"></path>
<path fill="#aa6100" style="fill: var(--color2, #aa6100)" d="M5.333 7.758h-2.909c-0.803 0-1.455 0.651-1.455 1.455s0.651 1.455 1.455 1.455h2.909c0.803 0 1.455-0.651 1.455-1.455s-0.651-1.455-1.455-1.455z"></path>
<path fill="#aa6100" style="fill: var(--color2, #aa6100)" d="M5.333 14.545h-2.909c-0.803 0-1.455 0.651-1.455 1.455s0.651 1.455 1.455 1.455h2.909c0.803 0 1.455-0.651 1.455-1.455s-0.651-1.455-1.455-1.455z"></path>
<path fill="#aa6100" style="fill: var(--color2, #aa6100)" d="M5.333 21.333h-2.909c-0.803 0-1.455 0.651-1.455 1.455s0.651 1.455 1.455 1.455h2.909c0.803 0 1.455-0.651 1.455-1.455s-0.651-1.455-1.455-1.455z"></path>
<path fill="#ecb45c" style="fill: var(--color3, #ecb45c)" d="M29.576 0h-19.394c-3.476 0-6.303 2.828-6.303 6.303v1.455h1.455c0.803 0 1.455 0.651 1.455 1.455s-0.651 1.455-1.455 1.455h-1.455v3.879h1.455c0.803 0 1.455 0.651 1.455 1.455s-0.651 1.455-1.455 1.455h-1.455v3.879h1.455c0.803 0 1.455 0.651 1.455 1.455s-0.651 1.455-1.455 1.455h-1.455v1.455c0 3.475 2.827 6.303 6.303 6.303h19.394c0.803 0 1.455-0.651 1.455-1.455v-29.091c0-0.803-0.651-1.455-1.455-1.455zM20.772 19.317c-1.057 1.057-2.212 1.859-3.318 2.365-1.77 0.81-3.412 0.857-4.316-0.046-0.029-0.029-1.987-1.987-1.987-1.987l2.974-2.974 1.99 1.99 4.003-4.003-1.99-1.99 2.975-2.975c0 0 1.959 1.959 1.987 1.987 1.467 1.467 0.429 4.885-2.319 7.633z"></path>
<path fill="#ff9811" style="fill: var(--color4, #ff9811)" d="M13.139 21.637c-0.029-0.029-1.987-1.987-1.987-1.987l2.974-2.974 1.99 1.99 1.338-1.338v-17.328h-7.273c-3.476 0-6.303 2.828-6.303 6.303v1.455h1.455c0.803 0 1.455 0.651 1.455 1.455s-0.651 1.455-1.455 1.455h-1.455v3.879h1.455c0.803 0 1.455 0.651 1.455 1.455s-0.651 1.455-1.455 1.455h-1.455v3.879h1.455c0.803 0 1.455 0.651 1.455 1.455s-0.651 1.455-1.455 1.455h-1.455v1.455c0 3.475 2.827 6.303 6.303 6.303h7.273v-10.317c-1.77 0.81-3.412 0.857-4.316-0.046z"></path>
<path fill="#6a563d" style="fill: var(--color5, #6a563d)" d="M23.091 11.684c-0.029-0.029-1.987-1.987-1.987-1.987l-2.975 2.975 1.99 1.99-4.003 4.003-1.99-1.99-2.974 2.974c0 0 1.959 1.959 1.987 1.987 0.903 0.903 2.546 0.856 4.316 0.046 1.106-0.506 2.261-1.308 3.318-2.365 2.748-2.748 3.787-6.166 2.319-7.633z"></path>
</symbol>
<symbol id="exit" viewBox="0 0 32 32">
<path fill="#fff" style="fill: var(--color1, #fff)" d="M2.849 29.787l7.586-1.575c0.411-0.090 0.706-0.453 0.706-0.869v-22.696c0-0.421-0.295-0.785-0.706-0.869l-7.586-1.575c-0.063-0.010-0.126-0.021-0.184-0.021-0.485 0-0.88 0.395-0.88 0.89v25.847c-0.005 0.553 0.516 0.98 1.064 0.869z"></path>
<path fill="#56ace0" style="fill: var(--color2, #56ace0)" d="M3.555 4.162l5.811 1.212v21.242l-5.811 1.206z"></path>
<path fill="#194f82" style="fill: var(--color3, #194f82)" d="M7.717 13.455c-0.49 0-0.89 0.395-0.89 0.89v3.293c0 0.49 0.395 0.89 0.89 0.89s0.89-0.395 0.89-0.89v-3.293c0-0.485-0.4-0.89-0.89-0.89z"></path>
<path fill="#194f82" style="fill: var(--color3, #194f82)" d="M31.735 15.81l-3.941-3.941c-0.348-0.348-0.906-0.348-1.259 0-0.348 0.348-0.348 0.906 0 1.259l2.423 2.423h-6.243v-12.886c0-1.47-1.196-2.666-2.666-2.666h-17.38c-1.47 0-2.666 1.196-2.666 2.666v26.668c0 1.47 1.196 2.666 2.666 2.666h17.386c1.47 0 2.666-1.196 2.666-2.666v-12.007h6.238l-2.423 2.423c-0.348 0.348-0.348 0.906 0 1.259 0.432 0.353 0.859 0.342 1.259 0l3.941-3.941c0.348-0.353 0.348-0.911 0-1.259zM1.779 28.918v-25.846c0-0.49 0.395-0.89 0.89-0.89 0.063 0 7.771 1.591 7.771 1.591 0.411 0.090 0.706 0.453 0.706 0.869v22.696c0 0.421-0.295 0.785-0.706 0.869l-7.586 1.575c-0.553 0.116-1.075-0.311-1.075-0.864zM20.94 29.324c0 0.49-0.395 0.89-0.89 0.89h-10.51l1.259-0.258c1.228-0.258 2.123-1.354 2.123-2.613v-22.696c0-1.259-0.896-2.355-2.123-2.608l-1.259-0.263h10.516c0.49 0 0.89 0.395 0.89 0.89v26.658h-0.005z"></path>
<path fill="#ffc10d" style="fill: var(--color4, #ffc10d)" d="M20.055 1.775h-10.516l1.259 0.263c1.228 0.258 2.123 1.354 2.123 2.608v22.696c0 1.259-0.896 2.355-2.123 2.613l-1.254 0.258h10.51c0.49 0 0.89-0.395 0.89-0.89v-26.658c-0.005-0.49-0.4-0.89-0.89-0.89z"></path>
</symbol><symbol id="phonebookHome" viewBox="0 0 32 32">
<path fill="#80d0e1" style="fill: var(--color1, #80d0e1)" d="M28.144 32h-4.251c-0.647 0-1.171-0.524-1.171-1.171v-9.886c0-0.647 0.524-1.171 1.171-1.171h4.251c0.647 0 1.171 0.524 1.171 1.171v9.886c-0 0.647-0.524 1.171-1.171 1.171z"></path>
<path fill="#20b8ae" style="fill: var(--color2, #20b8ae)" d="M29.314 22.114h-6.592v-11.057c0-0.647 0.524-1.171 1.171-1.171h4.251c0.647 0 1.171 0.524 1.171 1.171v11.057z"></path>
<path fill="#ff9392" style="fill: var(--color3, #ff9392)" d="M29.314 12.228h-6.592v-11.057c0-0.647 0.524-1.171 1.171-1.171h4.251c0.647 0 1.171 0.524 1.171 1.171v11.057z"></path>
<path fill="#ffda79" style="fill: var(--color4, #ffda79)" d="M25.063 32h-21.207c-0.647 0-1.171-0.524-1.171-1.171v-29.659c0-0.647 0.524-1.171 1.171-1.171h21.207v32z"></path>
<path fill="#ffd155" style="fill: var(--color5, #ffd155)" d="M13.875 0h11.189v32h-11.189v-32z"></path>
<path fill="#ffc72d" style="fill: var(--color6, #ffc72d)" d="M20.003 23.303l-4.314-7.473c1.654-0.707 2.816-2.35 2.816-4.259 0-2.553-2.077-4.63-4.63-4.63s-4.63 2.077-4.63 4.63c0 1.909 1.162 3.552 2.816 4.259l-4.314 7.473c-0.45 0.78 0.115 1.756 1.014 1.756h10.229c0.901-0 1.463-0.977 1.014-1.756z"></path>
<path fill="#ffbe00" style="fill: var(--color7, #ffbe00)" d="M20.003 23.303l-4.314-7.473c1.654-0.707 2.816-2.35 2.816-4.259 0-2.553-2.077-4.63-4.63-4.63h-0v18.118h5.114c0.901-0 1.463-0.977 1.014-1.756z"></path>
</symbol>


</defs>
</svg>
